<?xml version="1.0" standalone="no"?>
<!DOCTYPE svg PUBLIC "-//W3C//DTD SVG 20010904//EN"
 "http://www.w3.org/TR/2001/REC-SVG-20010904/DTD/svg10.dtd">
<svg version="1.0" xmlns="http://www.w3.org/2000/svg"
 width="720.000000pt" height="1254.000000pt" viewBox="0 0 720.000000 1254.000000"
 preserveAspectRatio="xMidYMid meet">
<metadata>
Created by potrace 1.16, written by Peter Selinger 2001-2019
</metadata>
<g transform="translate(0.000000,1254.000000) scale(0.100000,-0.100000)"
fill="#000000" stroke="none">
<path d="M3583 10148 c-6 -7 -137 -267 -293 -578 -155 -311 -328 -655 -385
-765 -56 -110 -218 -429 -360 -710 -142 -280 -333 -658 -425 -840 -92 -181
-274 -541 -405 -800 -131 -258 -302 -596 -380 -750 -79 -154 -270 -530 -425
-835 -155 -305 -324 -636 -375 -735 -51 -99 -148 -288 -215 -420 -67 -132
-167 -327 -222 -432 -55 -106 -97 -197 -93 -203 4 -6 128 -10 350 -10 l343 0
105 203 c190 367 567 1103 857 1671 l286 560 1653 0 1652 1 88 -170 c48 -93
228 -444 399 -780 171 -335 412 -806 535 -1045 l224 -435 344 -3 c188 -1 346
1 351 6 4 4 -24 70 -63 147 -39 76 -290 569 -558 1094 -563 1104 -705 1381
-1281 2521 -232 459 -493 975 -580 1145 -86 171 -289 571 -451 890 -592 1172
-647 1279 -657 1283 -5 1 -14 -3 -19 -10z m122 -1772 c28 -12 66 -41 86 -62
20 -23 99 -165 183 -330 82 -159 203 -395 269 -524 66 -129 207 -401 312 -605
197 -378 335 -651 335 -660 0 -3 -583 -5 -1295 -5 -712 0 -1295 2 -1295 5 0 5
482 954 675 1330 51 99 157 306 235 460 79 154 154 295 168 312 70 93 220 130
327 79z"/>
</g>
</svg>
